<?xml version="1.0" standalone="no"?>
<!DOCTYPE svg PUBLIC "-//W3C//DTD SVG 20010904//EN"
 "http://www.w3.org/TR/2001/REC-SVG-20010904/DTD/svg10.dtd">
<svg version="1.0" xmlns="http://www.w3.org/2000/svg"
 width="512.000000pt" height="512.000000pt" viewBox="0 0 512.000000 512.000000"
 preserveAspectRatio="xMidYMid meet">
<metadata>
Created by potrace 1.11, written by Peter Selinger 2001-2013
</metadata>
<g transform="translate(0.000000,512.000000) scale(0.100000,-0.100000)"
fill="#000000" stroke="none">
<path d="M3520 3399 c-41 -6 -195 -9 -342 -7 l-268 3 0 -77 0 -78 40 0 c62 0
135 -19 160 -42 19 -18 22 -29 18 -69 -6 -59 -409 -1095 -419 -1076 -4 6 -87
226 -184 487 -137 367 -179 489 -183 537 -9 115 8 136 131 154 l77 11 0 77 0
76 -415 0 -415 0 0 -77 c0 -68 2 -78 18 -78 41 0 139 -33 170 -57 42 -32 71
-94 72 -151 0 -32 -46 -162 -182 -517 -101 -261 -186 -471 -190 -467 -13 13
-389 1007 -398 1051 -17 91 24 130 142 139 l68 5 0 76 0 76 -400 0 -400 0 0
-77 0 -78 31 0 c94 0 168 -54 216 -156 17 -38 136 -330 264 -649 128 -319 262
-653 297 -742 l66 -163 62 0 61 0 238 593 c131 325 243 603 250 615 10 21 36
-41 251 -592 l239 -616 64 2 63 3 216 540 c118 297 216 541 217 543 1 1 31
-26 66 -60 83 -81 178 -146 363 -247 173 -95 196 -110 254 -165 71 -67 97
-126 97 -221 0 -67 -5 -88 -27 -130 -51 -98 -114 -134 -244 -143 -90 -5 -170
13 -233 52 -96 61 -174 190 -207 344 l-17 82 -74 0 -73 0 0 -29 c0 -33 37
-398 46 -449 4 -28 14 -37 74 -67 207 -104 484 -128 699 -60 237 75 390 281
391 525 0 180 -89 325 -265 427 -38 23 -154 82 -256 132 -263 130 -355 209
-379 328 -25 117 25 214 138 270 51 25 68 28 157 28 87 0 107 -4 156 -27 108
-50 183 -155 209 -293 l12 -65 74 0 74 0 -1 43 c-1 23 -6 121 -12 217 l-12
175 -82 41 c-45 22 -114 49 -155 59 -86 21 -294 29 -408 14z"/>
</g>
</svg>
